<svg width="32" height="32" viewBox="0 0 32 32" fill="none" xmlns="http://www.w3.org/2000/svg">
<path d="M5.33341 27.9998C4.60008 27.9998 3.97253 27.7389 3.45075 27.2172C2.92897 26.6954 2.66764 26.0674 2.66675 25.3332V10.6665C2.66675 9.93317 2.92808 9.30561 3.45075 8.78384C3.97341 8.26206 4.60097 8.00073 5.33341 7.99984H10.6667V5.33317C10.6667 4.59984 10.9281 3.97228 11.4507 3.4505C11.9734 2.92873 12.601 2.66739 13.3334 2.6665H18.6667C19.4001 2.6665 20.0281 2.92784 20.5507 3.4505C21.0734 3.97317 21.3343 4.60073 21.3334 5.33317V7.99984H26.6667C27.4001 7.99984 28.0281 8.26117 28.5507 8.78384C29.0734 9.3065 29.3343 9.93406 29.3334 10.6665V25.3332C29.3334 26.0665 29.0725 26.6945 28.5507 27.2172C28.029 27.7398 27.401 28.0007 26.6667 27.9998H5.33341ZM13.3334 7.99984H18.6667V5.33317H13.3334V7.99984Z" fill="#210909" fill-opacity="0.8"/>
</svg>
