<svg width="32" height="32" viewBox="0 0 32 32" fill="none" xmlns="http://www.w3.org/2000/svg">
<path d="M25.3333 22.6667V25.3334H9.33333V22.6667C9.33333 22.6667 9.33333 17.3334 17.3333 17.3334C25.3333 17.3334 25.3333 22.6667 25.3333 22.6667ZM21.3333 10.6667C21.3333 9.87562 21.0987 9.10227 20.6592 8.44447C20.2197 7.78667 19.595 7.27398 18.8641 6.97123C18.1332 6.66848 17.3289 6.58927 16.553 6.74361C15.777 6.89795 15.0643 7.27891 14.5049 7.83832C13.9455 8.39773 13.5645 9.11046 13.4102 9.88639C13.2559 10.6623 13.3351 11.4666 13.6378 12.1975C13.9406 12.9284 14.4533 13.5531 15.1111 13.9926C15.7688 14.4322 16.5422 14.6667 17.3333 14.6667C18.3942 14.6667 19.4116 14.2453 20.1618 13.4952C20.9119 12.745 21.3333 11.7276 21.3333 10.6667ZM25.6 17.4134C26.3288 18.0858 26.9164 18.8967 27.3285 19.7986C27.7406 20.7006 27.9688 21.6756 28 22.6667V25.3334H32V22.6667C32 22.6667 32 18.0668 25.6 17.4134ZM24 6.66675C23.5972 6.66699 23.1968 6.72997 22.8133 6.85342C23.5934 7.97204 24.0116 9.30299 24.0116 10.6667C24.0116 12.0305 23.5934 13.3615 22.8133 14.4801C23.1968 14.6035 23.5972 14.6665 24 14.6667C25.0609 14.6667 26.0783 14.2453 26.8284 13.4952C27.5786 12.745 28 11.7276 28 10.6667C28 9.60588 27.5786 8.58847 26.8284 7.83832C26.0783 7.08818 25.0609 6.66675 24 6.66675ZM10.6667 13.3334H6.66667V9.33342H4V13.3334H0V16.0001H4V20.0001H6.66667V16.0001H10.6667V13.3334Z" fill="#F8F8F8"/>
</svg>
