<svg width="40" height="40" viewBox="0 0 40 40" fill="none" xmlns="http://www.w3.org/2000/svg">
<path d="M16.5995 2.62495C16.8202 2.89211 16.9554 3.21867 16.9877 3.56267C17.02 3.90668 16.948 4.25242 16.7808 4.55548C15.4697 6.94355 14.7853 9.62087 14.7908 12.3406C14.7908 21.388 22.2207 28.7141 31.3777 28.7141C32.5744 28.7126 33.7327 28.5926 34.8523 28.3541C35.1949 28.2813 35.5514 28.3099 35.8777 28.4363C36.204 28.5627 36.4859 28.7813 36.6883 29.0651C36.9024 29.3604 37.0117 29.718 36.999 30.0817C36.9863 30.4453 36.8523 30.7945 36.618 31.0744C34.8402 33.242 32.5975 34.9885 30.0535 36.1866C27.5095 37.3848 24.7282 38.0042 21.9124 38C11.4634 38 3 29.6434 3 19.3472C3 11.5981 7.79156 4.95148 14.614 2.13444C14.9537 1.99111 15.3312 1.96145 15.6894 2.04995C16.0476 2.13844 16.3671 2.34027 16.5995 2.62495Z" fill="#F8F8F8"/>
</svg>
