<svg width="40" height="40" viewBox="0 0 40 40" fill="none" xmlns="http://www.w3.org/2000/svg">
<path d="M18.8242 5.63736V4.31868C18.8242 3.96895 18.9631 3.63353 19.2104 3.38623C19.4577 3.13893 19.7931 3 20.1429 3C20.4926 3 20.828 3.13893 21.0753 3.38623C21.3226 3.63353 21.4615 3.96895 21.4615 4.31868V5.63736C21.4615 5.9871 21.3226 6.32251 21.0753 6.56981C20.828 6.81711 20.4926 6.95604 20.1429 6.95604C19.7931 6.95604 19.4577 6.81711 19.2104 6.56981C18.9631 6.32251 18.8242 5.9871 18.8242 5.63736ZM20.1429 9.59341C18.0564 9.59341 16.0167 10.2121 14.2819 11.3713C12.547 12.5305 11.1949 14.1781 10.3964 16.1058C9.59797 18.0334 9.38906 20.1546 9.79611 22.201C10.2032 24.2473 11.2079 26.1271 12.6833 27.6024C14.1586 29.0778 16.0384 30.0825 18.0848 30.4896C20.1312 30.8967 22.2523 30.6877 24.18 29.8893C26.1076 29.0908 27.7552 27.7387 28.9144 26.0038C30.0736 24.269 30.6923 22.2293 30.6923 20.1429C30.6893 17.3459 29.5768 14.6644 27.5991 12.6866C25.6213 10.7089 22.9398 9.59646 20.1429 9.59341ZM8.66044 10.5264C8.90788 10.7738 9.24348 10.9128 9.59341 10.9128C9.94334 10.9128 10.2789 10.7738 10.5264 10.5264C10.7738 10.2789 10.9128 9.94334 10.9128 9.59341C10.9128 9.24348 10.7738 8.90788 10.5264 8.66044L9.20769 7.34176C8.96025 7.09432 8.62466 6.95531 8.27472 6.95531C7.92479 6.95531 7.5892 7.09432 7.34176 7.34176C7.09432 7.5892 6.95531 7.92479 6.95531 8.27472C6.95531 8.62466 7.09432 8.96025 7.34176 9.20769L8.66044 10.5264ZM8.66044 29.7593L7.34176 31.078C7.09432 31.3255 6.95531 31.6611 6.95531 32.011C6.95531 32.3609 7.09432 32.6965 7.34176 32.944C7.5892 33.1914 7.92479 33.3304 8.27472 33.3304C8.62466 33.3304 8.96025 33.1914 9.20769 32.944L10.5264 31.6253C10.6489 31.5028 10.7461 31.3573 10.8124 31.1972C10.8787 31.0371 10.9128 30.8656 10.9128 30.6923C10.9128 30.519 10.8787 30.3475 10.8124 30.1874C10.7461 30.0273 10.6489 29.8819 10.5264 29.7593C10.4039 29.6368 10.2584 29.5396 10.0983 29.4733C9.93825 29.407 9.76667 29.3729 9.59341 29.3729C9.42014 29.3729 9.24857 29.407 9.08849 29.4733C8.92841 29.5396 8.78296 29.6368 8.66044 29.7593ZM30.6923 10.9121C30.8655 10.9122 31.0371 10.8782 31.1972 10.812C31.3572 10.7459 31.5027 10.6488 31.6253 10.5264L32.944 9.20769C33.1914 8.96025 33.3304 8.62466 33.3304 8.27472C33.3304 7.92479 33.1914 7.5892 32.944 7.34176C32.6965 7.09432 32.3609 6.95531 32.011 6.95531C31.6611 6.95531 31.3255 7.09432 31.078 7.34176L29.7593 8.66044C29.5747 8.84486 29.4489 9.07992 29.398 9.33586C29.347 9.59179 29.3731 9.8571 29.473 10.0982C29.5729 10.3393 29.7421 10.5453 29.9591 10.6902C30.1762 10.8351 30.4313 10.9123 30.6923 10.9121ZM31.6253 29.7593C31.3778 29.5119 31.0422 29.3729 30.6923 29.3729C30.3424 29.3729 30.0068 29.5119 29.7593 29.7593C29.5119 30.0068 29.3729 30.3424 29.3729 30.6923C29.3729 31.0422 29.5119 31.3778 29.7593 31.6253L31.078 32.944C31.2005 33.0665 31.346 33.1637 31.5061 33.23C31.6661 33.2963 31.8377 33.3304 32.011 33.3304C32.1843 33.3304 32.3558 33.2963 32.5159 33.23C32.676 33.1637 32.8214 33.0665 32.944 32.944C33.0665 32.8214 33.1637 32.676 33.23 32.5159C33.2963 32.3558 33.3304 32.1843 33.3304 32.011C33.3304 31.8377 33.2963 31.6661 33.23 31.5061C33.1637 31.346 33.0665 31.2005 32.944 31.078L31.6253 29.7593ZM5.63736 18.8242H4.31868C3.96895 18.8242 3.63353 18.9631 3.38623 19.2104C3.13893 19.4577 3 19.7931 3 20.1429C3 20.4926 3.13893 20.828 3.38623 21.0753C3.63353 21.3226 3.96895 21.4615 4.31868 21.4615H5.63736C5.9871 21.4615 6.32251 21.3226 6.56981 21.0753C6.81711 20.828 6.95604 20.4926 6.95604 20.1429C6.95604 19.7931 6.81711 19.4577 6.56981 19.2104C6.32251 18.9631 5.9871 18.8242 5.63736 18.8242ZM20.1429 33.3297C19.7931 33.3297 19.4577 33.4686 19.2104 33.7159C18.9631 33.9632 18.8242 34.2986 18.8242 34.6483V35.967C18.8242 36.3168 18.9631 36.6522 19.2104 36.8995C19.4577 37.1468 19.7931 37.2857 20.1429 37.2857C20.4926 37.2857 20.828 37.1468 21.0753 36.8995C21.3226 36.6522 21.4615 36.3168 21.4615 35.967V34.6483C21.4615 34.2986 21.3226 33.9632 21.0753 33.7159C20.828 33.4686 20.4926 33.3297 20.1429 33.3297ZM35.967 18.8242H34.6483C34.2986 18.8242 33.9632 18.9631 33.7159 19.2104C33.4686 19.4577 33.3297 19.7931 33.3297 20.1429C33.3297 20.4926 33.4686 20.828 33.7159 21.0753C33.9632 21.3226 34.2986 21.4615 34.6483 21.4615H35.967C36.3168 21.4615 36.6522 21.3226 36.8995 21.0753C37.1468 20.828 37.2857 20.4926 37.2857 20.1429C37.2857 19.7931 37.1468 19.4577 36.8995 19.2104C36.6522 18.9631 36.3168 18.8242 35.967 18.8242Z" fill="#210909" fill-opacity="0.8"/>
</svg>
