<svg width="33" height="33" viewBox="0 0 33 33" fill="none" xmlns="http://www.w3.org/2000/svg">
<path d="M26.2971 17.8552H25.1638L21.8305 20.855H25.0138L27.9638 23.8547H4.63045L7.59712 20.855H11.0138L7.68045 17.8552H6.29712L1.29712 22.3549V28.3544C1.29712 29.15 1.64831 29.9131 2.27343 30.4756C2.89855 31.0382 3.7464 31.3542 4.63045 31.3542H27.9638C28.8478 31.3542 29.6957 31.0382 30.3208 30.4756C30.9459 29.9131 31.2971 29.15 31.2971 28.3544V22.3549L26.2971 17.8552ZM24.6305 10.2807L16.3805 17.7052L10.4638 12.3955L18.7305 4.97102L24.6305 10.2807ZM17.5638 1.79123L6.94712 11.3456C6.79261 11.4844 6.67003 11.6492 6.5864 11.8306C6.50276 12.0121 6.45971 12.2066 6.45971 12.403C6.45971 12.5995 6.50276 12.794 6.5864 12.9754C6.67003 13.1569 6.79261 13.3217 6.94712 13.4604L15.1971 20.855C15.8471 21.4699 16.8971 21.4699 17.5471 20.855L28.1471 11.3456C28.3016 11.2068 28.4242 11.042 28.5078 10.8606C28.5915 10.6791 28.6345 10.4846 28.6345 10.2882C28.6345 10.0917 28.5915 9.89721 28.5078 9.71576C28.4242 9.53432 28.3016 9.36949 28.1471 9.23073L19.8971 1.80623C19.7467 1.66464 19.5663 1.55168 19.3665 1.47404C19.1667 1.39641 18.9516 1.35568 18.734 1.35429C18.5164 1.35289 18.3006 1.39084 18.0996 1.4659C17.8986 1.54096 17.7164 1.65159 17.5638 1.79123Z" fill="#210909" fill-opacity="0.8"/>
</svg>
