<svg width="512" height="512" viewBox="0 0 512 512" fill="none" xmlns="http://www.w3.org/2000/svg">
<g clip-path="url(#clip0_1044_732)">
<g clip-path="url(#clip1_1044_732)">
<path fill-rule="evenodd" clip-rule="evenodd" d="M107.307 292.288L122.454 170.901C123.544 162.169 126.423 153.755 130.912 146.185C135.4 138.615 141.402 132.053 148.542 126.908C155.681 121.762 163.805 118.144 172.406 116.281C181.006 114.417 189.899 114.347 198.528 116.075C216.811 119.744 237.312 127.168 256 127.168C274.688 127.168 295.19 119.744 313.472 116.075C322.1 114.35 330.99 114.422 339.589 116.288C348.187 118.153 356.308 121.772 363.445 126.917C370.582 132.062 376.582 138.623 381.069 146.191C385.557 153.759 388.435 162.171 389.526 170.901L404.715 292.288C428.95 298.347 469.334 310.08 469.334 341.333C469.334 375.381 422.123 386.603 396.374 392.32C359.723 400.469 310.102 405.333 256 405.333C201.899 405.333 152.278 400.469 115.627 392.32C89.8563 386.603 42.667 375.381 42.667 341.333C42.667 310.08 83.051 298.347 107.307 292.288ZM124.864 350.677C111.531 347.712 101.184 344.491 93.8243 341.333C101.184 338.176 111.531 334.933 124.864 331.989C157.675 324.693 204.054 320 256 320C307.947 320 354.326 324.693 387.136 331.989C400.47 334.955 410.816 338.176 418.176 341.333C410.838 344.491 400.47 347.712 387.136 350.677C354.326 357.973 307.947 362.667 256 362.667C204.054 362.667 157.675 357.973 124.864 350.677Z" fill="url(#paint0_linear_1044_732)"/>
</g>
</g>
<defs>
<linearGradient id="paint0_linear_1044_732" x1="42.667" y1="114.829" x2="92.8581" y2="460.066" gradientUnits="userSpaceOnUse">
<stop stop-color="#0300A0"/>
<stop offset="0.51" stop-color="#622173"/>
<stop offset="1" stop-color="#61023B"/>
</linearGradient>
<clipPath id="clip0_1044_732">
<rect width="512" height="512" fill="white"/>
</clipPath>
<clipPath id="clip1_1044_732">
<rect width="512" height="512" fill="white"/>
</clipPath>
</defs>
</svg>
